<?xml version="1.0" encoding="utf-8"?>
<!-- Generator: Adobe Illustrator 21.1.0, SVG Export Plug-In . SVG Version: 6.00 Build 0)  -->
<svg version="1.1" id="Layer_1" xmlns="http://www.w3.org/2000/svg" xmlns:xlink="http://www.w3.org/1999/xlink" x="0px" y="0px"
	 viewBox="0 0 1289.9 165" style="enable-background:new 0 0 1289.9 165;" xml:space="preserve">
<style type="text/css">
	.st0{clip-path:url(#SVGID_2_);fill:#231F20;}
</style>
<g>
	<defs>
		<rect id="SVGID_1_" x="31.7" y="16" width="1243.8" height="129"/>
	</defs>
	<clipPath id="SVGID_2_">
		<use xlink:href="#SVGID_1_"  style="overflow:visible;"/>
	</clipPath>
	<path class="st0" d="M64.9,59.3c0-2.3-1.4-3.4-3.4-3.4H48.5v36.2h12.9c2.2,0,3.4-1.2,3.4-3.4V59.3z M81.8,92.5
		c0,6.5-4.8,11.8-11.1,12.9l13.6,36.2c0.7,1.9-0.5,3.4-2.7,3.4H71.3c-2.2,0-3.4-1.4-4.1-3.4l-12.7-36h-5.9v36c0,2.1-1.3,3.4-3.4,3.4
		H35.1c-2.2,0-3.4-1.2-3.4-3.4V42.5h36.8c7.4,0,13.3,5.8,13.3,13.1V92.5z"/>
	<path class="st0" d="M111.2,97.7v33.9h19.9c2.2,0,3.4,1.2,3.4,3.4v6.7c0,2.1-1.3,3.4-3.4,3.4H94.3V42.5h35.9c2.2,0,3.4,1.2,3.4,3.4
		v6.7c0,2.1-1.3,3.4-3.4,3.4h-19v28.3H127c2.2,0,3.4,1.2,3.4,3.4v6.7c0,2.1-1.3,3.4-3.4,3.4H111.2z"/>
	<path class="st0" d="M183.9,131.9c-0.9,7.2-5.9,13.1-13.3,13.1h-7.4c-7.4,0-12.4-5.8-13.3-13.1l-10.8-86c-0.2-2.1,1.1-3.4,3.2-3.4
		h10.4c2.2,0,3.2,1.2,3.4,3.4l9.7,85.7h2l9.7-85.7c0.2-2.1,1.4-3.4,3.6-3.4h10.2c2.2,0,3.4,1.2,3.2,3.4L183.9,131.9z"/>
	<path class="st0" d="M222.6,56c-2.3,0-3.4,1.4-3.4,3.4v68.9c0,2.1,1.3,3.4,3.4,3.4h11c2.2,0,3.4-1.2,3.4-3.4V59.3
		c0-2.1-1.3-3.4-3.4-3.4H222.6z M202.4,55.6c0-7.2,5.9-13.1,13.3-13.1h25c7.4,0,13.3,5.8,13.3,13.1v76.3c0,7.2-5.9,13.1-13.3,13.1
		h-25c-7.4,0-13.3-5.8-13.3-13.1V55.6z"/>
	<path class="st0" d="M266.4,45.9c0-2.1,1.3-3.4,3.4-3.4h10.1c2.2,0,3.4,1.2,3.4,3.4v85.7h20.1c2.2,0,3.4,1.2,3.4,3.4v6.7
		c0,2.1-1.3,3.4-3.4,3.4h-37V45.9z"/>
	<path class="st0" d="M347.4,45.9c0-2.1,1.3-3.4,3.4-3.4h10.1c2.2,0,3.4,1.2,3.4,3.4v86c0,7.2-5.9,13.1-13.3,13.1h-23.5
		c-7.4,0-13.3-5.8-13.3-13.1v-86c0-2.1,1.3-3.4,3.4-3.4h10.1c2.2,0,3.4,1.2,3.4,3.4v82.3c0,2.1,1.3,3.4,3.4,3.4h9.5
		c2.2,0,3.4-1.2,3.4-3.4V45.9z"/>
	<path class="st0" d="M397.1,56c-2.3,0-3.4,1.4-3.4,3.4v68.9c0,2.1,1.3,3.4,3.4,3.4h11c2.3,0,3.4-1.4,3.4-3.4v-11
		c0-2.1,1.3-3.4,3.4-3.4h10c2.2,0,3.4,1.2,3.4,3.4v14.7c0,7.2-5.9,13.1-13.3,13.1h-25c-7.4,0-13.3-5.8-13.3-13.1V55.6
		c0-7.2,5.9-13.1,13.3-13.1h24.2c7.4,0,13.3,5.8,13.3,13.1v14.7c0,2.1-1.3,3.4-3.4,3.4h-10.1c-2.2,0-3.4-1.2-3.4-3.4V59.3
		c0-1.9-1.1-3.4-3.4-3.4H397.1z"/>
	<path class="st0" d="M452.6,42.5c2.2,0,3.4,1.2,3.4,3.4v95.7c0,2.1-1.3,3.4-3.4,3.4h-10.1c-2.2,0-3.4-1.2-3.4-3.4V45.9
		c0-2.1,1.3-3.4,3.4-3.4H452.6z"/>
	<path class="st0" d="M496.2,35.7c-1.6,1.6-3.4,1.6-4.8,0.4l-4.3-4.1c-1.6-1.6-1.8-3-0.4-4.8l8.6-9.9c1.4-1.8,3.4-1.6,4.8-0.2
		l5.4,5.3c1.8,1.4,1.8,3.2,0.2,4.8L496.2,35.7z M488.8,56c-2.3,0-3.4,1.4-3.4,3.4v68.9c0,2.1,1.3,3.4,3.4,3.4h11
		c2.2,0,3.4-1.2,3.4-3.4V59.3c0-2.1-1.3-3.4-3.4-3.4H488.8z M468.5,55.6c0-7.2,5.9-13.1,13.3-13.1h25c7.4,0,13.3,5.8,13.3,13.1v76.3
		c0,7.2-5.9,13.1-13.3,13.1h-25c-7.4,0-13.3-5.8-13.3-13.1V55.6z"/>
	<path class="st0" d="M556.3,42.5c2.2,0,3.1,1.2,3.4,3.4l8.6,65.9l1.8,18.7l0.9-0.2l-1.3-84.4c0-2.1,1.3-3.4,3.4-3.4h8.3
		c2.2,0,3.4,1.2,3.4,3.4l-0.4,95.7c0,2.1-1.3,3.4-3.4,3.4h-21.4c-2.2,0-3.1-1.2-3.4-3.4l-8.8-68.2l-1.4-17.7h-0.9l1.1,85.9
		c0,2.1-1.3,3.4-3.4,3.4h-8.3c-2.2,0-3.4-1.2-3.4-3.4V45.9c0-2.1,1.3-3.4,3.4-3.4H556.3z"/>
	<path class="st0" d="M652.2,58.6c-0.5-1.8-2-2.6-3.6-2.6h-4.8v75.6h12.9c2.2,0,3.4-1.2,3.4-3.4V86.7c0-1.8-0.2-3.4-0.7-5.1
		L652.2,58.6z M674.3,73.6c1.8,5.1,2.7,11.3,2.7,17v41.3c0,7.2-5.9,13.1-13.3,13.1h-36.8V42.5h26c8.4,0,12.4,4.4,14.7,11.3
		L674.3,73.6z"/>
	<path class="st0" d="M706.4,97.7v33.9h19.9c2.2,0,3.4,1.2,3.4,3.4v6.7c0,2.1-1.3,3.4-3.4,3.4h-36.8V42.5h35.9
		c2.2,0,3.4,1.2,3.4,3.4v6.7c0,2.1-1.3,3.4-3.4,3.4h-19v28.3h15.8c2.2,0,3.4,1.2,3.4,3.4v6.7c0,2.1-1.3,3.4-3.4,3.4H706.4z"/>
	<path class="st0" d="M756.7,73.5l-2.2-17.7h-0.9l1.1,85.9c0,2.1-1.3,3.4-3.4,3.4h-8.6c-2.2,0-3.4-1.2-3.4-3.4V45.9
		c0-2.1,1.3-3.4,3.4-3.4h22.1c2.2,0,3,1.2,3.4,3.4l10,65.9l1.8,18.7h0.9l1.8-18.7l10.1-65.9c0.4-2.1,1.3-3.4,3.4-3.4h21.7
		c2.2,0,3.4,1.2,3.4,3.4v95.7c0,2.1-1.3,3.4-3.4,3.4h-9c-2.2,0-3.4-1.2-3.4-3.4l1.1-85.9h-0.9l-2.2,17.7l-9.9,68.2
		c-0.4,2.1-1.3,3.4-3.4,3.4H770c-2.2,0-3.1-1.2-3.4-3.4L756.7,73.5z"/>
	<path class="st0" d="M854.2,56c-2.3,0-3.4,1.4-3.4,3.4v68.9c0,2.1,1.3,3.4,3.4,3.4h10.9c2.2,0,3.4-1.2,3.4-3.4V59.3
		c0-2.1-1.3-3.4-3.4-3.4H854.2z M833.9,55.6c0-7.2,5.9-13.1,13.3-13.1h25c7.4,0,13.3,5.8,13.3,13.1v76.3c0,7.2-5.9,13.1-13.3,13.1
		h-25c-7.4,0-13.3-5.8-13.3-13.1V55.6z"/>
	<path class="st0" d="M918.2,56c-2.3,0-3.4,1.4-3.4,3.4v68.9c0,2.1,1.3,3.4,3.4,3.4h11c2.3,0,3.4-1.4,3.4-3.4v-11
		c0-2.1,1.3-3.4,3.4-3.4h10.1c2.2,0,3.4,1.2,3.4,3.4v14.7c0,7.2-5.9,13.1-13.3,13.1h-25c-7.4,0-13.3-5.8-13.3-13.1V55.6
		c0-7.2,5.9-13.1,13.3-13.1h24.2c7.4,0,13.3,5.8,13.3,13.1v14.7c0,2.1-1.3,3.4-3.4,3.4h-10.1c-2.2,0-3.4-1.2-3.4-3.4V59.3
		c0-1.9-1.1-3.4-3.4-3.4H918.2z"/>
	<path class="st0" d="M993.4,59.3c0-2.3-1.4-3.4-3.4-3.4h-12.9v36.2H990c2.2,0,3.4-1.2,3.4-3.4V59.3z M1010.3,92.5
		c0,6.5-4.8,11.8-11.1,12.9l13.6,36.2c0.7,1.9-0.5,3.4-2.7,3.4h-10.2c-2.2,0-3.4-1.4-4.1-3.4l-12.7-36h-5.9v36
		c0,2.1-1.3,3.4-3.4,3.4h-10.1c-2.2,0-3.4-1.2-3.4-3.4V42.5H997c7.4,0,13.3,5.8,13.3,13.1V92.5z"/>
	<path class="st0" d="M1051.8,35.7c-1.6,1.6-3.4,1.6-4.8,0.4l-4.3-4.1c-1.6-1.6-1.8-3-0.4-4.8l8.6-9.9c1.4-1.8,3.4-1.6,4.8-0.2
		l5.4,5.3c1.8,1.4,1.8,3.2,0.2,4.8L1051.8,35.7z M1039,105.8h14.7L1048,56h-3.1L1039,105.8z M1075.1,141.6c0.2,2.1-1.1,3.4-3.2,3.4
		h-10.2c-2.2,0-3.4-1.2-3.6-3.4l-2.7-22.1h-17.9l-2.5,22.1c-0.2,2.1-1.3,3.4-3.4,3.4h-10.4c-2.2,0-3.4-1.2-3.2-3.4l11.1-86
		c0.9-7.2,5.9-13.1,13.3-13.1h8.4c7.4,0,12.4,5.8,13.3,13.1L1075.1,141.6z"/>
	<path class="st0" d="M1120.7,42.5c2.2,0,3.4,1.2,3.4,3.4v6.7c0,2.1-1.3,3.4-3.4,3.4H1106v85.7c0,2.1-1.3,3.4-3.4,3.4h-10
		c-2.2,0-3.4-1.2-3.4-3.4V56h-14.7c-2.2,0-3.4-1.2-3.4-3.4v-6.7c0-2.1,1.3-3.4,3.4-3.4H1120.7z"/>
	<path class="st0" d="M1144.9,42.5c2.2,0,3.4,1.2,3.4,3.4v95.7c0,2.1-1.3,3.4-3.4,3.4h-10.1c-2.2,0-3.4-1.2-3.4-3.4V45.9
		c0-2.1,1.3-3.4,3.4-3.4H1144.9z"/>
	<path class="st0" d="M1181.2,56c-2.3,0-3.4,1.4-3.4,3.4v68.9c0,2.1,1.3,3.4,3.4,3.4h11c2.3,0,3.4-1.4,3.4-3.4v-11
		c0-2.1,1.3-3.4,3.4-3.4h10.1c2.2,0,3.4,1.2,3.4,3.4v14.7c0,7.2-5.9,13.1-13.3,13.1h-25c-7.4,0-13.3-5.8-13.3-13.1V55.6
		c0-7.2,5.9-13.1,13.3-13.1h24.2c7.4,0,13.3,5.8,13.3,13.1v14.7c0,2.1-1.3,3.4-3.4,3.4h-10.1c-2.2,0-3.4-1.2-3.4-3.4V59.3
		c0-1.9-1.1-3.4-3.4-3.4H1181.2z"/>
	<path class="st0" d="M1239.3,105.8h14.7l-5.7-49.8h-3.1L1239.3,105.8z M1275.4,141.6c0.2,2.1-1.1,3.4-3.2,3.4h-10.2
		c-2.2,0-3.4-1.2-3.6-3.4l-2.7-22.1h-17.9l-2.5,22.1c-0.2,2.1-1.3,3.4-3.4,3.4h-10.4c-2.2,0-3.4-1.2-3.2-3.4l11.1-86
		c0.9-7.2,5.9-13.1,13.3-13.1h8.4c7.4,0,12.4,5.8,13.3,13.1L1275.4,141.6z"/>
</g>
</svg>
