<?xml version="1.0" encoding="utf-8"?>
<!-- Generator: Adobe Illustrator 21.1.0, SVG Export Plug-In . SVG Version: 6.00 Build 0)  -->
<svg version="1.1" id="Layer_1" xmlns="http://www.w3.org/2000/svg" xmlns:xlink="http://www.w3.org/1999/xlink" x="0px" y="0px"
	 viewBox="0 0 1289.9 165" style="enable-background:new 0 0 1289.9 165;" xml:space="preserve">
<style type="text/css">
	.st0{fill:#12803D;}
	.st1{fill:#FFFFFF;}
</style>
<g>
	<g>
		<g>
			<path class="st0" d="M125.8,146.2c0.2,2.5-1.3,3.9-3.9,3.9h-12.5c-2.6,0-4.2-1.5-4.4-3.9l-3.3-26H79.9l-3.1,26
				c-0.2,2.5-1.5,3.9-4.2,3.9H60c-2.6,0-4.2-1.5-3.9-3.9L69.6,45c1.1-8.5,7.2-15.4,16.2-15.4h10.3c9,0,15.1,6.9,16.2,15.4
				L125.8,146.2z M81.9,104h17.9l-7-58.6h-3.7L81.9,104z"/>
			<path class="st0" d="M150,150.1c-9,0-16.2-6.9-16.2-15.4v-15.2c0-2.5,1.5-4,4.2-4h12.2c2.6,0,4.2,1.5,4.2,4v10.8
				c0,2.3,1.3,4,4.2,4h11.6c2.6,0,4.2-1.5,4.2-4v-29.1c0-2.3-1.3-3.9-4.2-3.9h-18.8c-9,0-16.2-6.9-16.2-15.4V45
				c0-8.5,7.2-15.4,16.2-15.4h27.5c9,0,16.2,6.9,16.2,15.4v15.2c0,2.5-1.5,3.9-4.2,3.9h-12.2c-2.6,0-4.2-1.5-4.2-3.9V49.3
				c0-2.3-1.3-4-4.2-4h-10.5c-2.8,0-4.2,1.7-4.2,4v24.9c0,2.5,1.5,4,4.2,4h18.8c9,0,16.2,6.9,16.2,15.4v41.2
				c0,8.5-7.2,15.4-16.2,15.4H150z"/>
			<path class="st0" d="M272.8,146.2c0.2,2.5-1.3,3.9-3.9,3.9h-12.5c-2.6,0-4.2-1.5-4.4-3.9l-3.3-26h-21.8l-3.1,26
				c-0.2,2.5-1.5,3.9-4.2,3.9H207c-2.6,0-4.2-1.5-3.9-3.9L216.6,45c1.1-8.5,7.2-15.4,16.2-15.4h10.3c9,0,15.1,6.9,16.2,15.4
				L272.8,146.2z M228.9,104h17.9l-7-58.6h-3.7L228.9,104z"/>
			<path class="st0" d="M303.1,65.9l-2.6-20.8h-1.1l1.3,101c0,2.5-1.5,3.9-4.2,3.9h-10.5c-2.6,0-4.2-1.5-4.2-3.9V33.5
				c0-2.5,1.5-4,4.2-4H313c2.6,0,3.7,1.5,4.2,4l12.2,77.5l2.2,22h1.1l2.2-22L347,33.5c0.4-2.5,1.5-4,4.2-4h26.4c2.6,0,4.2,1.5,4.2,4
				v112.7c0,2.5-1.5,3.9-4.2,3.9h-10.9c-2.6,0-4.2-1.5-4.2-3.9l1.3-101h-1.1l-2.6,20.8l-12,80.2c-0.4,2.5-1.5,3.9-4.2,3.9h-24.7
				c-2.6,0-3.7-1.5-4.2-3.9L303.1,65.9z"/>
			<path class="st0" d="M458,134.7c0,8.5-7.2,15.4-16.2,15.4h-44.8V29.6h42.4c9,0,16.2,6.9,16.2,15.4v11.2L449.1,82
				c5,2.1,9,7.3,9,15.4V134.7z M417.6,45.4v34.5h11.1l6.3-25.8v-4.8c0-2.5-1.5-4-4.2-4H417.6z M417.6,95.7v38.7h15.7
				c2.6,0,4.2-1.5,4.2-4V99.6c0-2.5-1.5-4-4.2-4H417.6z"/>
			<path class="st0" d="M473.3,33.5c0-2.5,1.5-4,4.2-4h12.2c2.6,0,4.2,1.5,4.2,4v100.8h24.5c2.6,0,4.2,1.5,4.2,3.9v7.9
				c0,2.5-1.5,3.9-4.2,3.9h-45V33.5z"/>
			<path class="st0" d="M551.9,94.4v39.9h24.2c2.6,0,4.2,1.5,4.2,3.9v7.9c0,2.5-1.5,3.9-4.2,3.9h-44.8V29.6h43.7
				c2.6,0,4.2,1.5,4.2,4v7.9c0,2.5-1.5,3.9-4.2,3.9h-23.2v33.3h19.2c2.6,0,4.2,1.5,4.2,4v7.9c0,2.5-1.5,4-4.2,4H551.9z"/>
			<path class="st0" d="M655.5,146.2c0.2,2.5-1.3,3.9-3.9,3.9h-12.5c-2.6,0-4.2-1.5-4.4-3.9l-3.3-26h-21.8l-3.1,26
				c-0.2,2.5-1.5,3.9-4.2,3.9h-12.7c-2.6,0-4.2-1.5-3.9-3.9L599.3,45c1.1-8.5,7.2-15.4,16.2-15.4h10.3c9,0,15.1,6.9,16.2,15.4
				L655.5,146.2z M611.6,104h17.9l-7-58.6h-3.7L611.6,104z"/>
		</g>
		<g>
			<g>
				<path class="st0" d="M899.7,66.2c2.2,6,3.3,13.3,3.3,20v48.6c0,8.5-7.2,15.4-16.2,15.4H842V29.6h31.7c10.3,0,15.1,5.2,17.9,13.3
					L899.7,66.2z M872.8,48.5c-0.7-2.1-2.4-3.1-4.4-3.1h-5.9v89h15.7c2.6,0,4.2-1.5,4.2-4V81.5c0-2.1-0.2-4-0.9-6L872.8,48.5z"/>
				<path class="st0" d="M934.7,29.6c2.6,0,4.2,1.5,4.2,4v112.7c0,2.5-1.5,3.9-4.2,3.9h-12.2c-2.6,0-4.2-1.5-4.2-3.9V33.5
					c0-2.5,1.5-4,4.2-4H934.7z"/>
				<path class="st0" d="M978.8,45.4c-2.8,0-4.2,1.7-4.2,4v81.1c0,2.5,1.5,4,4.2,4h13.3c2.6,0,4.2-1.5,4.2-4v-28.3h-7.6
					c-2.6,0-4.2-1.5-4.2-3.9v-7.9c0-2.5,1.5-3.9,4.2-3.9h28.2v48.4c0,8.5-7.2,15.4-16.2,15.4h-30.4c-9,0-16.2-6.9-16.2-15.4V45
					c0-8.5,7.2-15.4,16.2-15.4h29.5c9,0,16.2,6.9,16.2,15.4v14.5c0,2.5-1.5,4-4.2,4h-12.2c-2.6,0-4.2-1.5-4.2-4V49.3
					c0-2.3-1.3-4-4.2-4H978.8z"/>
				<path class="st0" d="M1046.7,29.6c2.6,0,4.2,1.5,4.2,4v112.7c0,2.5-1.5,3.9-4.2,3.9h-12.2c-2.6,0-4.2-1.5-4.2-3.9V33.5
					c0-2.5,1.5-4,4.2-4H1046.7z"/>
				<path class="st0" d="M1120.3,29.6c2.6,0,4.2,1.5,4.2,4v7.9c0,2.5-1.5,3.9-4.2,3.9h-17.9v100.8c0,2.5-1.5,3.9-4.2,3.9H1086
					c-2.6,0-4.2-1.5-4.2-3.9V45.4H1064c-2.6,0-4.2-1.5-4.2-3.9v-7.9c0-2.5,1.5-4,4.2-4H1120.3z"/>
				<path class="st0" d="M1189.1,146.2c0.2,2.5-1.3,3.9-3.9,3.9h-12.5c-2.6,0-4.2-1.5-4.4-3.9l-3.3-26h-21.8l-3.1,26
					c-0.2,2.5-1.5,3.9-4.2,3.9h-12.7c-2.6,0-4.2-1.5-3.9-3.9L1133,45c1.1-8.5,7.2-15.4,16.2-15.4h10.3c9,0,15.1,6.9,16.2,15.4
					L1189.1,146.2z M1145.2,104h17.9l-7-58.6h-3.7L1145.2,104z"/>
				<path class="st0" d="M1198.3,33.5c0-2.5,1.5-4,4.2-4h12.2c2.6,0,4.2,1.5,4.2,4v100.8h24.5c2.6,0,4.2,1.5,4.2,3.9v7.9
					c0,2.5-1.5,3.9-4.2,3.9h-45V33.5z"/>
			</g>
			<path class="st0" d="M717.6,101.6L682.8,78c-2.9-2.1-4.8-4.6-3.5-7.9c1.6-3.7,4.2-4.6,7.7-4.6l42.8,0.6l12.8-38.9
				c1-3,2.6-5.2,6.4-5.2c4.2,0,6.1,2.1,7,5.2L769,66.1l42.8-0.3c3.5,0,6.1,0.6,7.3,4c1.3,3.9-0.3,6.4-3.2,8.2l-34.5,23.7l14,38.6
				c1,2.7,0.7,5.5-2.2,7.6c-3.5,2.4-6.1,1.5-8.9-0.3l-34.5-24.3l-34.5,24.6c-2.9,1.8-5.4,2.7-8.6,0.9c-3.5-2.4-3.2-5.5-2.2-8.5
				L717.6,101.6z"/>
		</g>
	</g>
	<g>
		<g>
			<path class="st1" d="M116.4,136.8c0.2,2.5-1.3,3.9-3.9,3.9H100c-2.6,0-4.2-1.5-4.4-3.9l-3.3-26H70.5l-3.1,26
				c-0.2,2.5-1.5,3.9-4.2,3.9H50.6c-2.6,0-4.2-1.5-3.9-3.9L60.2,35.6c1.1-8.5,7.2-15.4,16.2-15.4h10.3c9,0,15.1,6.9,16.2,15.4
				L116.4,136.8z M72.5,94.6h17.9l-7-58.6h-3.7L72.5,94.6z"/>
			<path class="st1" d="M140.6,140.7c-9,0-16.2-6.9-16.2-15.4v-15.2c0-2.5,1.5-4,4.2-4h12.2c2.6,0,4.2,1.5,4.2,4V121
				c0,2.3,1.3,4,4.2,4h11.6c2.6,0,4.2-1.5,4.2-4V91.9c0-2.3-1.3-3.9-4.2-3.9h-18.8c-9,0-16.2-6.9-16.2-15.4v-37
				c0-8.5,7.2-15.4,16.2-15.4h27.5c9,0,16.2,6.9,16.2,15.4v15.2c0,2.5-1.5,3.9-4.2,3.9h-12.2c-2.6,0-4.2-1.5-4.2-3.9V39.9
				c0-2.3-1.3-4-4.2-4h-10.5c-2.8,0-4.2,1.7-4.2,4v24.9c0,2.5,1.5,4,4.2,4h18.8c9,0,16.2,6.9,16.2,15.4v41.2
				c0,8.5-7.2,15.4-16.2,15.4H140.6z"/>
			<path class="st1" d="M263.4,136.8c0.2,2.5-1.3,3.9-3.9,3.9H247c-2.6,0-4.2-1.5-4.4-3.9l-3.3-26h-21.8l-3.1,26
				c-0.2,2.5-1.5,3.9-4.2,3.9h-12.7c-2.6,0-4.2-1.5-3.9-3.9l13.5-101.2c1.1-8.5,7.2-15.4,16.2-15.4h10.3c9,0,15.1,6.9,16.2,15.4
				L263.4,136.8z M219.5,94.6h17.9l-7-58.6h-3.7L219.5,94.6z"/>
			<path class="st1" d="M293.7,56.5l-2.6-20.8H290l1.3,101c0,2.5-1.5,3.9-4.2,3.9h-10.5c-2.6,0-4.2-1.5-4.2-3.9V24.1
				c0-2.5,1.5-4,4.2-4h26.9c2.6,0,3.7,1.5,4.2,4l12.2,77.5l2.2,22h1.1l2.2-22l12.2-77.5c0.4-2.5,1.5-4,4.2-4h26.4
				c2.6,0,4.2,1.5,4.2,4v112.7c0,2.5-1.5,3.9-4.2,3.9h-10.9c-2.6,0-4.2-1.5-4.2-3.9l1.3-101h-1.1l-2.6,20.8l-12,80.2
				c-0.4,2.5-1.5,3.9-4.2,3.9h-24.7c-2.6,0-3.7-1.5-4.2-3.9L293.7,56.5z"/>
			<path class="st1" d="M448.6,125.3c0,8.5-7.2,15.4-16.2,15.4h-44.8V20.2H430c9,0,16.2,6.9,16.2,15.4v11.2l-6.6,25.8
				c5,2.1,9,7.3,9,15.4V125.3z M408.2,36v34.5h11.1l6.3-25.8v-4.8c0-2.5-1.5-4-4.2-4H408.2z M408.2,86.3v38.7h15.7
				c2.6,0,4.2-1.5,4.2-4V90.2c0-2.5-1.5-4-4.2-4H408.2z"/>
			<path class="st1" d="M463.9,24.1c0-2.5,1.5-4,4.2-4h12.2c2.6,0,4.2,1.5,4.2,4v100.8h24.5c2.6,0,4.2,1.5,4.2,3.9v7.9
				c0,2.5-1.5,3.9-4.2,3.9h-45V24.1z"/>
			<path class="st1" d="M542.5,85v39.9h24.2c2.6,0,4.2,1.5,4.2,3.9v7.9c0,2.5-1.5,3.9-4.2,3.9H522V20.2h43.7c2.6,0,4.2,1.5,4.2,4V32
				c0,2.5-1.5,3.9-4.2,3.9h-23.2v33.3h19.2c2.6,0,4.2,1.5,4.2,4v7.9c0,2.5-1.5,4-4.2,4H542.5z"/>
			<path class="st1" d="M646.1,136.8c0.2,2.5-1.3,3.9-3.9,3.9h-12.5c-2.6,0-4.2-1.5-4.4-3.9l-3.3-26h-21.8l-3.1,26
				c-0.2,2.5-1.5,3.9-4.2,3.9h-12.7c-2.6,0-4.2-1.5-3.9-3.9l13.5-101.2c1.1-8.5,7.2-15.4,16.2-15.4h10.3c9,0,15.1,6.9,16.2,15.4
				L646.1,136.8z M602.2,94.6h17.9l-7-58.6h-3.7L602.2,94.6z"/>
		</g>
		<g>
			<g>
				<path class="st1" d="M890.3,56.8c2.2,6,3.3,13.3,3.3,20v48.6c0,8.5-7.2,15.4-16.2,15.4h-44.8V20.2h31.7
					c10.3,0,15.1,5.2,17.9,13.3L890.3,56.8z M863.4,39.1c-0.7-2.1-2.4-3.1-4.4-3.1h-5.9v89h15.7c2.6,0,4.2-1.5,4.2-4V72.1
					c0-2.1-0.2-4-0.9-6L863.4,39.1z"/>
				<path class="st1" d="M925.3,20.2c2.6,0,4.2,1.5,4.2,4v112.7c0,2.5-1.5,3.9-4.2,3.9H913c-2.6,0-4.2-1.5-4.2-3.9V24.1
					c0-2.5,1.5-4,4.2-4H925.3z"/>
				<path class="st1" d="M969.4,36c-2.8,0-4.2,1.7-4.2,4V121c0,2.5,1.5,4,4.2,4h13.3c2.6,0,4.2-1.5,4.2-4V92.7h-7.6
					c-2.6,0-4.2-1.5-4.2-3.9v-7.9c0-2.5,1.5-3.9,4.2-3.9h28.2v48.4c0,8.5-7.2,15.4-16.2,15.4h-30.4c-9,0-16.2-6.9-16.2-15.4V35.6
					c0-8.5,7.2-15.4,16.2-15.4h29.5c9,0,16.2,6.9,16.2,15.4v14.5c0,2.5-1.5,4-4.2,4h-12.2c-2.6,0-4.2-1.5-4.2-4V39.9
					c0-2.3-1.3-4-4.2-4H969.4z"/>
				<path class="st1" d="M1037.3,20.2c2.6,0,4.2,1.5,4.2,4v112.7c0,2.5-1.5,3.9-4.2,3.9h-12.2c-2.6,0-4.2-1.5-4.2-3.9V24.1
					c0-2.5,1.5-4,4.2-4H1037.3z"/>
				<path class="st1" d="M1110.9,20.2c2.6,0,4.2,1.5,4.2,4V32c0,2.5-1.5,3.9-4.2,3.9H1093v100.8c0,2.5-1.5,3.9-4.2,3.9h-12.2
					c-2.6,0-4.2-1.5-4.2-3.9V36h-17.9c-2.6,0-4.2-1.5-4.2-3.9v-7.9c0-2.5,1.5-4,4.2-4H1110.9z"/>
				<path class="st1" d="M1179.7,136.8c0.2,2.5-1.3,3.9-3.9,3.9h-12.5c-2.6,0-4.2-1.5-4.4-3.9l-3.3-26h-21.8l-3.1,26
					c-0.2,2.5-1.5,3.9-4.2,3.9H1114c-2.6,0-4.2-1.5-3.9-3.9l13.5-101.2c1.1-8.5,7.2-15.4,16.2-15.4h10.3c9,0,15.1,6.9,16.2,15.4
					L1179.7,136.8z M1135.8,94.6h17.9l-7-58.6h-3.7L1135.8,94.6z"/>
				<path class="st1" d="M1188.9,24.1c0-2.5,1.5-4,4.2-4h12.2c2.6,0,4.2,1.5,4.2,4v100.8h24.5c2.6,0,4.2,1.5,4.2,3.9v7.9
					c0,2.5-1.5,3.9-4.2,3.9h-45V24.1z"/>
			</g>
			<path class="st1" d="M708.2,92.2l-34.8-23.7c-2.9-2.1-4.8-4.6-3.5-7.9c1.6-3.7,4.2-4.6,7.7-4.6l42.8,0.6l12.8-38.9
				c1-3,2.6-5.2,6.4-5.2c4.2,0,6.1,2.1,7,5.2l13.1,38.9l42.8-0.3c3.5,0,6.1,0.6,7.3,4c1.3,3.9-0.3,6.4-3.2,8.2L772,92.2l14,38.6
				c1,2.7,0.7,5.5-2.2,7.6c-3.5,2.4-6.1,1.5-8.9-0.3l-34.5-24.3L706,138.4c-2.9,1.8-5.4,2.7-8.6,0.9c-3.5-2.4-3.2-5.5-2.2-8.5
				L708.2,92.2z"/>
		</g>
	</g>
</g>
</svg>
