<?xml version="1.0" encoding="utf-8"?>
<!-- Generator: Adobe Illustrator 21.1.0, SVG Export Plug-In . SVG Version: 6.00 Build 0)  -->
<svg version="1.1" id="Layer_1" xmlns="http://www.w3.org/2000/svg" xmlns:xlink="http://www.w3.org/1999/xlink" x="0px" y="0px"
	 viewBox="0 0 1289.9 165" style="enable-background:new 0 0 1289.9 165;" xml:space="preserve">
<style type="text/css">
	.st0{fill:#FFFFFF;}
</style>
<g>
	<path class="st0" d="M65.6,38.6c1.5,0,2.7,0.4,3.6,1.3c0.8,0.8,1.4,1.7,1.6,2.5L96.5,116c0.1,0.2,0.1,0.5,0.1,0.8
		c0,0.7-0.3,1.3-0.8,1.8s-1.1,0.8-1.8,0.8H72.7c-1.5,0-2.6-0.3-3.2-1s-1-1.3-1.3-1.9l-2.8-7.6H40.7l-2.8,7.6
		c-0.2,0.6-0.7,1.3-1.3,1.9c-0.6,0.7-1.7,1-3.2,1H12c-0.7,0-1.3-0.2-1.8-0.8c-0.5-0.5-0.8-1.1-0.8-1.8c0-0.3,0-0.6,0.1-0.8
		l25.7-73.6c0.2-0.8,0.8-1.7,1.6-2.5s2-1.3,3.6-1.3C40.4,38.6,65.6,38.6,65.6,38.6z M59.6,86.3L53,64.9l-6.5,21.5L59.6,86.3
		L59.6,86.3z"/>
	<path class="st0" d="M134.9,37.4c5.8,0,10.9,0.8,15.3,2.3c4.5,1.5,8.2,3.5,11.3,5.9s5.4,5,7,7.7c1.6,2.8,2.5,5.4,2.5,8
		c0,0.7-0.3,1.3-0.8,1.8s-1.1,0.8-1.7,0.8h-23.1c-1.1,0-1.9-0.2-2.6-0.5c-0.7-0.3-1.3-0.8-2-1.4c-0.4-0.4-1.1-0.8-2.1-1.3
		s-2.4-0.8-4-0.8c-2,0-3.4,0.3-4.3,0.9c-0.8,0.6-1.3,1.4-1.3,2.4c0,0.5,0.2,1,0.5,1.5s1,0.9,2,1.3s2.3,0.8,3.9,1.2
		c1.7,0.3,3.8,0.7,6.4,1c5.8,0.7,10.7,1.7,14.7,3s7.3,3,9.9,5c2.5,2,4.4,4.5,5.5,7.3c1.2,2.8,1.7,6.1,1.7,9.9c0,4.2-1,8-2.9,11.4
		c-2,3.3-4.7,6.2-8.1,8.5c-3.4,2.3-7.5,4.2-12.1,5.4c-4.7,1.3-9.7,1.9-15.2,1.9c-6.4,0-11.9-0.7-16.7-2c-4.7-1.3-8.7-3.2-11.8-5.4
		c-3.1-2.3-5.5-4.9-7-7.8c-1.6-3-2.4-6.1-2.5-9.3c0-0.7,0.2-1.3,0.8-1.8c0.5-0.5,1.1-0.8,1.8-0.8h21.9c1.2,0,2.2,0.2,2.8,0.5
		c0.6,0.3,1.3,0.8,2.2,1.4c1.1,0.8,2.3,1.5,3.6,2s3,0.7,4.9,0.7c2.6,0,4.7-0.3,6.3-0.8s2.4-1.3,2.4-2.4c0-1.4-1.1-2.4-3.2-3.2
		c-2.1-0.7-6-1.5-11.7-2.2c-4.5-0.6-8.7-1.6-12.3-2.8c-3.7-1.3-6.8-2.9-9.4-5s-4.6-4.6-5.9-7.4c-1.4-2.9-2.1-6.2-2.1-10.1
		s0.8-7.5,2.5-10.8s4.1-6.1,7.2-8.4s6.8-4.1,11.1-5.4C124.9,38.1,129.7,37.4,134.9,37.4z"/>
	<path class="st0" d="M231.1,38.6c1.5,0,2.7,0.4,3.6,1.3c0.8,0.8,1.4,1.7,1.6,2.5L262,116c0.1,0.2,0.1,0.5,0.1,0.8
		c0,0.7-0.3,1.3-0.8,1.8s-1.1,0.8-1.8,0.8h-21.3c-1.5,0-2.6-0.3-3.2-1c-0.6-0.7-1-1.3-1.3-1.9l-2.8-7.6h-24.8l-2.8,7.6
		c-0.2,0.6-0.7,1.3-1.3,1.9c-0.6,0.7-1.7,1-3.2,1h-21.3c-0.7,0-1.3-0.2-1.8-0.8c-0.5-0.5-0.8-1.1-0.8-1.8c0-0.3,0-0.6,0.1-0.8
		l25.7-73.6c0.2-0.8,0.8-1.7,1.6-2.5s2-1.3,3.6-1.3C205.9,38.6,231.1,38.6,231.1,38.6z M225.1,86.3l-6.6-21.5L212,86.3H225.1z"/>
	<path class="st0" d="M311.2,69.4l16.7-27.7c0.2-0.4,0.7-1,1.5-1.8s1.9-1.3,3.5-1.3h18.2c0.8,0,1.6,0.3,2.2,0.9
		c0.6,0.6,0.9,1.3,0.9,2.2v74.5c0,0.8-0.3,1.6-0.9,2.2s-1.3,0.9-2.2,0.9h-20.9c-0.8,0-1.6-0.3-2.2-0.9c-0.6-0.6-0.9-1.3-0.9-2.2
		V84.6l-7.6,12.5c-0.4,0.6-0.9,1.3-1.6,1.9c-0.7,0.7-1.6,1-2.7,1h-8.1c-1.2,0-2.1-0.3-2.7-1c-0.7-0.7-1.2-1.3-1.6-1.9l-7.6-12.5
		v31.6c0,0.8-0.3,1.6-0.9,2.2c-0.6,0.6-1.3,0.9-2.2,0.9h-20.9c-0.8,0-1.6-0.3-2.2-0.9c-0.6-0.6-0.9-1.3-0.9-2.2V41.7
		c0-0.8,0.3-1.6,0.9-2.2c0.6-0.6,1.3-0.9,2.2-0.9h18.2c1.5,0,2.7,0.4,3.5,1.3c0.8,0.8,1.3,1.5,1.5,1.8L311.2,69.4z"/>
	<path class="st0" d="M369,119.3c-0.8,0-1.6-0.3-2.2-0.9c-0.6-0.6-0.9-1.3-0.9-2.2V41.7c0-0.8,0.3-1.6,0.9-2.2
		c0.6-0.6,1.3-0.9,2.2-0.9h38.3c11.1,0,19.2,2,24.3,6c5.1,4,7.7,10.1,7.7,18.2c0,1.8-0.3,3.6-0.9,5.1c-0.6,1.6-1.4,3-2.3,4.2
		s-1.9,2.2-3,3.1s-2.1,1.6-3,2c1.5,0.6,2.9,1.5,4.2,2.6c1.3,1.1,2.5,2.4,3.5,3.9s1.8,3.1,2.4,4.8c0.6,1.7,0.9,3.6,0.9,5.5
		c0,8.7-2.8,15.1-8.4,19.2s-13.6,6.2-24.2,6.2L369,119.3L369,119.3z M409.2,63.7c0-1.2-0.4-2.4-1.1-3.6s-1.9-1.7-3.6-1.7h-9.7v10.5
		h9.7c1.7,0,2.9-0.6,3.6-1.7C408.8,66.1,409.2,64.9,409.2,63.7z M394.7,99.5h10.7c1.9,0,3.3-0.6,4.1-1.8c0.8-1.2,1.2-2.5,1.2-3.8
		c0-1.4-0.4-2.7-1.3-3.9c-0.9-1.2-2.2-1.8-4-1.8h-10.7L394.7,99.5L394.7,99.5z"/>
	<path class="st0" d="M510.9,95.6c0.8,0,1.6,0.3,2.2,0.9s0.9,1.3,0.9,2.2v17.4c0,0.8-0.3,1.6-0.9,2.2c-0.6,0.6-1.3,0.9-2.2,0.9
		h-58.1c-0.8,0-1.6-0.3-2.2-0.9c-0.6-0.6-0.9-1.3-0.9-2.2V41.7c0-0.8,0.3-1.6,0.9-2.2c0.6-0.6,1.3-0.9,2.2-0.9h23.1
		c0.8,0,1.6,0.3,2.2,0.9c0.6,0.6,0.9,1.3,0.9,2.2v54L510.9,95.6L510.9,95.6z"/>
	<path class="st0" d="M584,96.8c0.8,0,1.6,0.3,2.2,0.9c0.6,0.6,0.9,1.3,0.9,2.2v16.3c0,0.8-0.3,1.6-0.9,2.2
		c-0.6,0.6-1.3,0.9-2.2,0.9h-60.1c-0.8,0-1.6-0.3-2.2-0.9c-0.6-0.6-0.9-1.3-0.9-2.2V41.7c0-0.8,0.3-1.6,0.9-2.2
		c0.6-0.6,1.3-0.9,2.2-0.9H583c0.8,0,1.6,0.3,2.2,0.9c0.6,0.6,0.9,1.3,0.9,2.2V58c0,0.8-0.3,1.6-0.9,2.2c-0.6,0.6-1.3,0.9-2.2,0.9
		h-34.6v7.3h32.1c0.8,0,1.6,0.3,2.2,0.9c0.6,0.6,0.9,1.3,0.9,2.2v15c0,0.8-0.3,1.6-0.9,2.2c-0.6,0.6-1.3,0.9-2.2,0.9h-32.1v7.3
		L584,96.8L584,96.8z"/>
	<path class="st0" d="M648.2,38.6c1.5,0,2.7,0.4,3.6,1.3c0.8,0.8,1.4,1.7,1.6,2.5l25.7,73.6c0.1,0.2,0.1,0.5,0.1,0.8
		c0,0.7-0.3,1.3-0.8,1.8s-1.1,0.8-1.8,0.8h-21.3c-1.5,0-2.6-0.3-3.2-1c-0.6-0.7-1-1.3-1.3-1.9l-2.8-7.6h-24.8l-2.8,7.6
		c-0.2,0.6-0.7,1.3-1.3,1.9c-0.6,0.7-1.7,1-3.2,1h-21.3c-0.7,0-1.3-0.2-1.8-0.8c-0.5-0.5-0.8-1.1-0.8-1.8c0-0.3,0-0.6,0.1-0.8
		L618,42.4c0.2-0.8,0.8-1.7,1.6-2.5s2-1.3,3.6-1.3C623.2,38.6,648.2,38.6,648.2,38.6z M642.2,86.3l-6.6-21.5l-6.5,21.5H642.2z"/>
	<path class="st0" d="M835.6,38.6c5.4,0,10.4,0.7,15,2.1s8.6,3.4,12.1,6.1c3.4,2.7,6.1,6,8.1,9.9c2,4,3.1,8.5,3.3,13.7
		c0.1,1.6,0.1,3.1,0.1,4.6c0,1.4,0,2.8,0,4.2c0,1.3,0,2.7,0,4.1s0,2.8-0.1,4.4c-0.2,5.5-1.3,10.2-3.2,14.2s-4.5,7.3-7.8,9.9
		s-7.2,4.6-11.8,5.8c-4.5,1.3-9.6,1.9-15.1,1.9h-33.8c-0.8,0-1.6-0.3-2.2-0.9c-0.6-0.6-0.9-1.3-0.9-2.2V41.7c0-0.8,0.3-1.6,0.9-2.2
		c0.6-0.6,1.3-0.9,2.2-0.9H835.6z M844.8,70.3c-0.2-3.2-1.2-5.6-3.1-7c-1.9-1.5-4.1-2.2-6.7-2.2h-6.9v35.8h7.5
		c2.5,0,4.7-0.8,6.4-2.2c1.7-1.5,2.7-3.9,2.8-7.1c0.1-1.6,0.1-3.1,0.2-4.6c0-1.4,0.1-2.8,0.1-4.2c0-1.3,0-2.7-0.1-4
		C845,73.4,844.9,71.9,844.8,70.3z"/>
	<path class="st0" d="M886.4,119.3c-0.8,0-1.6-0.3-2.2-0.9c-0.6-0.6-0.9-1.3-0.9-2.2V41.7c0-0.8,0.3-1.6,0.9-2.2
		c0.6-0.6,1.3-0.9,2.2-0.9H910c0.8,0,1.6,0.3,2.2,0.9c0.6,0.6,0.9,1.3,0.9,2.2v74.5c0,0.8-0.3,1.6-0.9,2.2c-0.6,0.6-1.3,0.9-2.2,0.9
		L886.4,119.3L886.4,119.3z"/>
	<path class="st0" d="M961.6,59.9c-5.7,0-8.7,2.9-8.9,8.7c-0.2,6.4-0.2,12.9,0,19.6c0.2,3.5,1,6,2.7,7.5c1.6,1.5,3.8,2.3,6.7,2.3
		s5.3-0.6,7.1-1.9s2.7-3.4,2.7-6.4h-5.4c-0.8,0-1.6-0.3-2.2-0.9c-0.6-0.6-0.9-1.3-0.9-2.2V73.7c0-0.8,0.3-1.6,0.9-2.2
		c0.6-0.6,1.3-0.9,2.2-0.9h31.7c0.8,0,1.6,0.3,2.2,0.9c0.6,0.6,0.9,1.3,0.9,2.2v15c0,5.2-1,9.8-2.9,13.7c-2,3.9-4.7,7.2-8.2,9.9
		c-3.5,2.7-7.7,4.7-12.5,6.1c-4.8,1.3-10.2,2-16,2s-11.1-0.7-15.8-2s-8.7-3.3-12.1-5.9c-3.3-2.6-6-5.9-7.8-9.9
		c-1.9-4-2.9-8.6-3.2-14c-0.2-3.2-0.2-6.6-0.2-10.3c0-3.7,0.1-7.2,0.2-10.5c0.2-5.1,1.3-9.5,3.2-13.4c1.9-3.8,4.6-7,8-9.6
		c3.4-2.5,7.4-4.4,12.1-5.7c4.7-1.3,9.9-1.9,15.6-1.9c6.1,0,11.6,0.7,16.4,2.1c4.9,1.4,9,3.2,12.4,5.6c3.4,2.3,6,5.1,7.9,8.2
		c1.9,3.1,2.9,6.4,2.9,9.9c0,0.7-0.3,1.3-0.7,1.8c-0.5,0.5-1.1,0.8-1.8,0.8h-25.5c-1.5,0-2.7-0.4-3.3-1.3c-0.2-0.3-0.5-0.7-0.9-1.2
		c-0.3-0.5-0.8-1-1.5-1.5s-1.5-0.9-2.4-1.3C964.2,60.1,963,59.9,961.6,59.9z"/>
	<path class="st0" d="M1013.9,119.3c-0.8,0-1.6-0.3-2.2-0.9c-0.6-0.6-0.9-1.3-0.9-2.2V41.7c0-0.8,0.3-1.6,0.9-2.2
		c0.6-0.6,1.3-0.9,2.2-0.9h23.5c0.8,0,1.6,0.3,2.2,0.9c0.6,0.6,0.9,1.3,0.9,2.2v74.5c0,0.8-0.3,1.6-0.9,2.2
		c-0.6,0.6-1.3,0.9-2.2,0.9L1013.9,119.3L1013.9,119.3z"/>
	<path class="st0" d="M1118.2,38.6c0.8,0,1.6,0.3,2.2,0.9c0.6,0.6,0.9,1.3,0.9,2.2v18.6c0,0.8-0.3,1.6-0.9,2.2s-1.3,0.9-2.2,0.9
		H1099v52.8c0,0.8-0.3,1.6-0.9,2.2c-0.6,0.6-1.3,0.9-2.2,0.9h-23.1c-0.8,0-1.6-0.3-2.2-0.9c-0.6-0.6-0.9-1.3-0.9-2.2V63.4h-19.1
		c-0.8,0-1.6-0.3-2.2-0.9s-0.9-1.3-0.9-2.2V41.7c0-0.8,0.3-1.6,0.9-2.2c0.6-0.6,1.3-0.9,2.2-0.9H1118.2z"/>
	<path class="st0" d="M1171.5,38.6c1.5,0,2.7,0.4,3.6,1.3c0.8,0.8,1.4,1.7,1.6,2.5l25.7,73.6c0.1,0.2,0.1,0.5,0.1,0.8
		c0,0.7-0.2,1.3-0.8,1.8c-0.5,0.5-1.1,0.8-1.8,0.8h-21.3c-1.5,0-2.6-0.3-3.2-1s-1-1.3-1.3-1.9l-2.8-7.6h-24.8l-2.8,7.6
		c-0.2,0.6-0.7,1.3-1.3,1.9c-0.6,0.7-1.7,1-3.2,1h-21.3c-0.7,0-1.3-0.2-1.8-0.8c-0.5-0.5-0.8-1.1-0.8-1.8c0-0.3,0-0.6,0.1-0.8
		l25.7-73.6c0.2-0.8,0.8-1.7,1.6-2.5c0.8-0.8,2-1.3,3.6-1.3C1146.3,38.6,1171.5,38.6,1171.5,38.6z M1165.5,86.3l-6.6-21.5l-6.5,21.5
		H1165.5z"/>
	<path class="st0" d="M1269.8,95.6c0.8,0,1.6,0.3,2.2,0.9s0.9,1.3,0.9,2.2v17.4c0,0.8-0.3,1.6-0.9,2.2s-1.3,0.9-2.2,0.9h-58.1
		c-0.8,0-1.6-0.3-2.2-0.9c-0.6-0.6-0.9-1.3-0.9-2.2V41.7c0-0.8,0.3-1.6,0.9-2.2c0.6-0.6,1.3-0.9,2.2-0.9h23.1c0.8,0,1.6,0.3,2.2,0.9
		c0.6,0.6,0.9,1.3,0.9,2.2v54L1269.8,95.6L1269.8,95.6z"/>
	<path class="st0" d="M781,68.5c-0.3-0.9-1.2-1.5-2.1-1.5v-0.1h-30.1l-9.3-28.6h-0.1c-0.3-0.9-1.1-1.5-2-1.5c-1,0-1.8,0.7-2,1.5
		h-0.1L726.1,67h-0.3l0,0l0,0h-29.7v0.1c-0.9,0-1.8,0.5-2.1,1.5c-0.3,0.9,0.1,1.9,0.8,2.4v0.1l24,17.4l-9.4,29l0,0
		c-0.3,0.9,0,1.9,0.7,2.4c0.8,0.6,1.8,0.5,2.6-0.1l0,0l24.5-17.8l0,0v0.1l0,0l24.4,17.8l0,0c0.7,0.6,1.8,0.6,2.6,0.1
		c0.8-0.6,1-1.6,0.7-2.4l0,0l-9.3-28.5l0,0l-0.1-0.2L780.2,71v-0.1C780.9,70.4,781.3,69.5,781,68.5"/>
</g>
</svg>
